<svg width="315" height="100" viewBox="0 0 984 312" fill="none" xmlns="http://www.w3.org/2000/svg">
  <path d="M810.354 67.2H792.306V144H843.954V126.72H810.354V67.2Z" fill="#EB0000"/>
  <path fill-rule="evenodd" clip-rule="evenodd" d="M506.256 252V175.2H536.784C544.912 175.2 551.184 177.024 555.6 180.672C560.08 184.256 562.32 189.408 562.32 196.128C562.32 199.392 561.424 202.272 559.632 204.768C557.904 207.264 555.44 209.184 552.24 210.528V212.064C555.952 213.408 558.8 215.616 560.784 218.688C562.832 221.696 563.856 225.376 563.856 229.728C563.856 236.832 561.52 242.336 556.848 246.24C552.176 250.08 545.616 252 537.168 252H506.256ZM524.304 235.104H536.88C539.824 235.104 542.096 234.496 543.696 233.28C545.296 232.064 546.096 230.368 546.096 228.192C546.096 225.888 545.296 224.096 543.696 222.816C542.096 221.536 539.824 220.896 536.88 220.896H524.304V235.104ZM524.304 205.536H536.496C539.44 205.536 541.712 204.96 543.312 203.808C544.912 202.656 545.712 201.056 545.712 199.008C545.712 196.832 544.912 195.136 543.312 193.92C541.712 192.704 539.44 192.096 536.496 192.096H524.304V205.536Z" fill="#EB0000"/>
  <path d="M591.833 175.2H573.785V223.68C573.785 233.216 576.345 240.64 581.465 245.952C586.585 251.264 593.913 253.92 603.449 253.92C612.985 253.92 620.313 251.264 625.433 245.952C630.553 240.64 633.113 233.216 633.113 223.68V175.2H615.833V223.008C615.833 227.616 614.777 231.168 612.665 233.664C610.553 236.16 607.609 237.408 603.833 237.408C600.121 237.408 597.177 236.224 595.001 233.856C592.889 231.424 591.833 228 591.833 223.584V175.2Z" fill="#EB0000"/>
  <path d="M664.737 252V192.48H642.081V175.2H705.441V192.48H682.785V252H664.737Z" fill="#EB0000"/>
  <path d="M721.994 175.2V252H773.642V234.72H740.042V175.2H721.994Z" fill="#EB0000"/>
  <path d="M789.33 252V175.2H842.994V190.56H807.378V206.496H838.194V221.472H807.378V236.64H842.034V252H789.33Z" fill="#EB0000"/>
  <path fill-rule="evenodd" clip-rule="evenodd" d="M856.763 252V175.2H889.787C895.099 175.2 899.707 176.224 903.611 178.272C907.515 180.32 910.555 183.2 912.731 186.912C914.907 190.56 915.995 194.848 915.995 199.776C915.995 204.192 914.875 208.096 912.635 211.488C910.395 214.88 907.291 217.568 903.323 219.552C901.672 220.364 899.913 221.004 898.045 221.473L917.915 252H897.275L878.991 222.432H874.811V252H856.763ZM874.811 207.168H889.019C891.771 207.168 893.947 206.528 895.547 205.248C897.147 203.904 897.947 202.08 897.947 199.776C897.947 197.536 897.147 195.744 895.547 194.4C893.947 193.056 891.771 192.384 889.019 192.384H874.811V207.168Z" fill="#EB0000"/>
  <path d="M715.274 144V126.72H735.05V84.48H715.274V67.2H772.874V84.48H753.098V126.72H772.874V144H715.274Z" fill="#EB0000"/>
  <path fill-rule="evenodd" clip-rule="evenodd" d="M658.497 67.2L640.737 144H657.537L662.331 122.88H683.974L688.737 144H706.785L689.025 67.2H658.497ZM680.077 105.6L674.145 79.296H672.225L666.254 105.6H680.077Z" fill="#EB0000"/>
  <path d="M573.689 144V67.2H597.785L602.873 103.68H604.793L609.881 67.2H633.209V144H617.561V114.048L618.809 83.52H616.889L611.705 120H595.193L590.009 83.52H588.089L589.337 114.048V144H573.689Z" fill="#EB0000"/>
  <path d="M508.08 67.2V144H560.784V128.64H526.128V113.472H556.944V98.496H526.128V82.56H561.744V67.2H508.08Z" fill="#EB0000"/>
  <path d="M132 12H60C33.4903 12 12 33.4903 12 60V132M180 12H300M180 300H300M156 156C156 156 192 192 240 192C288 192 324 156 324 156M348 12H468M852 12H924C950.51 12 972 33.4903 972 60V132M406 238L358 190M74 74L122 122M406 74L358 122M74 238L122 190M132 300H60C33.4903 300 12 278.51 12 252V180M348 300H468M852 300H924C950.51 300 972 278.51 972 252V180M516 300H636M516 12H636M684 12H804M684 300H804" stroke="#EB0000" stroke-width="24" stroke-linecap="square"/>
</svg>
